<?xml version="1.0" standalone="no"?>
<!DOCTYPE svg PUBLIC "-//W3C//DTD SVG 20010904//EN"
 "http://www.w3.org/TR/2001/REC-SVG-20010904/DTD/svg10.dtd">
<svg version="1.0" xmlns="http://www.w3.org/2000/svg"
 width="1408.000000pt" height="768.000000pt" viewBox="0 0 1408.000000 768.000000"
 preserveAspectRatio="xMidYMid meet">

<g transform="translate(0.000000,768.000000) scale(0.100000,-0.100000)"
fill="#000000" stroke="none">
<path d="M7763 5120 c-123 -25 -243 -140 -381 -369 -165 -274 -327 -671 -476
-1167 -72 -239 -75 -246 -132 -322 -77 -103 -222 -251 -304 -312 -37 -27 -102
-66 -145 -87 -65 -31 -91 -37 -159 -41 -72 -3 -85 -1 -116 20 -20 13 -46 45
-60 73 -23 45 -25 61 -24 165 1 93 6 132 28 205 54 181 148 346 259 453 103
98 208 136 267 95 34 -23 40 -33 40 -71 0 -48 -27 -88 -83 -124 -26 -17 -52
-39 -58 -50 -25 -47 24 -118 82 -118 70 0 143 124 143 245 0 114 -54 183 -161
205 -163 34 -344 -33 -494 -183 -104 -104 -165 -207 -223 -377 -38 -111 -78
-169 -218 -309 -252 -254 -522 -395 -779 -408 -91 -5 -117 -3 -175 16 -181 56
-278 210 -278 441 0 203 83 383 251 541 120 113 238 183 412 243 102 36 104
36 150 20 73 -25 181 -30 219 -10 44 23 59 56 42 95 -21 51 -67 66 -217 69
l-132 4 -30 46 c-16 26 -35 67 -41 92 -14 51 -15 199 -2 212 4 4 30 4 58 -1
149 -28 360 -22 501 15 133 34 237 109 279 199 42 89 27 166 -45 236 -70 67
-141 90 -306 96 -159 6 -264 -15 -395 -80 -112 -55 -231 -170 -283 -272 l-35
-71 -229 57 c-625 155 -963 167 -1220 43 -92 -44 -189 -133 -231 -212 -54
-101 -51 -167 10 -201 24 -14 28 -14 47 3 12 11 21 26 21 35 0 9 16 49 35 90
113 235 383 335 775 287 178 -22 456 -81 740 -156 l35 -10 -3 -73 c-7 -129 33
-238 118 -326 23 -23 40 -43 38 -44 -2 -1 -48 -17 -104 -36 -207 -68 -366
-164 -497 -300 -135 -140 -206 -285 -226 -459 -27 -243 60 -439 247 -560 101
-65 205 -94 356 -100 147 -5 226 6 360 50 200 65 383 185 585 385 69 68 126
123 128 123 2 0 3 -20 3 -44 0 -161 116 -300 278 -335 229 -48 490 83 742 374
24 28 40 41 36 31 -20 -57 -96 -334 -96 -352 0 -12 7 -25 16 -28 25 -10 126
-7 167 5 44 12 52 25 98 179 39 132 160 370 275 543 136 204 308 364 367 341
55 -21 15 -173 -150 -564 -117 -276 -153 -400 -153 -529 0 -90 22 -152 70
-195 73 -65 163 -57 252 23 70 62 186 221 289 393 l84 141 8 -54 c10 -77 59
-170 113 -218 60 -52 129 -76 225 -76 68 1 85 5 152 38 94 47 185 140 267 277
52 86 61 95 95 102 65 14 157 70 222 135 34 35 64 72 68 83 13 40 22 18 38
-92 9 -62 21 -116 27 -122 24 -24 39 20 51 159 16 173 21 153 44 -165 22 -322
23 -330 46 -330 11 0 21 6 24 13 2 6 9 104 14 217 6 113 18 306 27 430 8 124
21 311 28 415 l12 190 7 -95 c4 -52 16 -349 27 -660 29 -801 38 -1019 45
-1030 11 -18 35 -10 39 13 3 12 14 177 26 367 29 481 59 902 63 907 3 2 8 -72
11 -164 11 -237 32 -528 40 -542 12 -19 35 -12 40 12 3 12 17 157 31 322 14
164 27 300 28 302 2 1 11 -84 20 -189 9 -106 21 -196 26 -201 24 -24 39 3 51
90 22 162 28 175 44 101 10 -44 41 -36 65 16 25 57 35 59 236 47 164 -10 318
-3 411 20 86 20 209 85 263 139 94 93 137 234 91 293 -14 18 -31 27 -50 27
-26 0 -30 -5 -40 -42 -6 -24 -16 -63 -22 -87 -29 -113 -139 -218 -277 -263
-59 -19 -94 -22 -332 -27 -235 -5 -269 -8 -286 -23 -27 -25 -30 -23 -37 25
-10 66 -26 107 -42 107 -19 0 -31 -32 -39 -114 -4 -37 -11 -64 -15 -59 -4 4
-14 94 -24 198 -20 218 -21 225 -46 225 -22 0 -22 -5 -51 -315 -11 -126 -22
-231 -23 -232 -1 -1 -12 170 -25 380 -12 210 -24 388 -26 395 -3 6 -11 12 -20
12 -9 0 -18 -6 -20 -12 -5 -13 -42 -524 -70 -962 -8 -132 -17 -241 -19 -243
-1 -2 -6 101 -10 229 -6 199 -25 703 -52 1360 -4 92 -10 172 -15 179 -13 21
-39 1 -39 -30 0 -16 -12 -197 -26 -403 -14 -205 -33 -498 -43 -650 -10 -153
-20 -280 -22 -283 -3 -2 -13 109 -22 248 -14 186 -22 256 -33 267 -10 10 -17
11 -25 3 -8 -8 -42 -253 -50 -358 -1 -11 -9 16 -18 60 -12 60 -20 81 -34 83
-10 2 -20 -4 -23 -15 -41 -118 -118 -212 -219 -265 -35 -18 -66 -30 -68 -28
-3 3 10 50 28 106 120 365 31 635 -203 611 -108 -11 -201 -99 -242 -228 l-22
-68 -29 14 c-116 61 -263 -67 -348 -300 -93 -256 -388 -723 -494 -780 -115
-62 -87 84 103 540 152 363 190 500 170 606 -22 117 -82 169 -193 169 -96 -1
-198 -66 -309 -198 -69 -82 -165 -220 -218 -314 -17 -32 -33 -58 -35 -58 -6 0
19 79 92 304 l65 198 97 102 c354 370 631 821 631 1029 0 104 -80 160 -197
137z m115 -92 c18 -18 15 -88 -8 -160 -39 -128 -169 -352 -313 -543 -61 -81
-265 -325 -272 -325 -5 0 31 92 112 283 158 374 334 677 426 736 38 24 39 25
55 9z m-2218 -191 c148 -64 126 -222 -42 -305 -92 -45 -175 -62 -328 -69 -125
-5 -283 7 -298 22 -15 15 57 125 133 200 88 88 172 136 279 161 74 17 207 12
256 -9z m-346 -863 c28 -11 6 -24 -37 -23 -23 0 -60 6 -82 14 l-40 13 72 1
c39 1 78 -2 87 -5z m3482 -93 c18 -11 42 -40 55 -68 21 -42 24 -61 23 -163 -1
-123 -21 -222 -71 -346 -28 -72 -36 -75 -116 -48 -60 20 -122 82 -155 152 -73
159 -16 408 108 473 45 25 116 24 156 0z m-359 -395 c13 -78 52 -158 101 -210
39 -41 142 -96 180 -96 12 0 22 -3 22 -7 0 -10 -66 -119 -92 -153 -148 -192
-320 -238 -381 -102 -45 102 -32 280 33 436 32 76 105 196 119 196 4 0 12 -29
18 -64z"/>
<path d="M5160 3684 c-212 -24 -401 -43 -421 -43 -25 -1 -39 -7 -43 -17 -4 -9
-5 -18 -3 -20 2 -3 187 15 665 65 101 10 186 21 189 24 2 3 3 12 1 19 -2 12
-70 7 -388 -28z"/>
<path d="M5390 3564 c-63 -8 -256 -30 -429 -48 -283 -31 -347 -43 -328 -62 5
-6 778 68 877 84 31 5 46 13 48 25 4 20 -5 20 -168 1z"/>
<path d="M5095 3384 c-214 -24 -414 -46 -442 -49 -36 -5 -53 -11 -53 -21 0 -8
9 -14 21 -14 11 0 221 20 466 45 245 25 447 45 449 45 2 0 4 9 4 20 0 25 29
27 -445 -26z"/>
<path d="M5065 3234 c-209 -24 -399 -43 -422 -44 -37 0 -43 -3 -43 -21 0 -19
4 -20 48 -15 26 4 205 22 397 41 463 47 442 44 448 66 6 24 33 26 -428 -27z"/>
<path d="M5340 3124 c-8 -2 -168 -20 -355 -39 -187 -20 -342 -39 -344 -41 -3
-2 0 -9 6 -15 15 -15 754 58 765 75 4 6 8 14 8 19 0 7 -51 8 -80 1z"/>
<path d="M5045 2954 c-299 -33 -300 -33 -284 -49 12 -12 49 -11 249 10 129 14
243 25 252 25 10 0 22 9 28 20 13 24 32 25 -245 -6z"/>
</g>
</svg>
